# xmcd CD database file
# Copyright (C) 1997 Ti Kan
#
# Track frame offsets:
#  150
#  16575
#  43585
#  53740
#  74045
#  91990
#  118800
#  139545
#  150020
#  155037
#  167685
#
# Disc length: 2477 seconds
#
# Revision: 1
# Processed by: cddbd v1.4b41PL1 Copyright (c) Steve Scherf et al.
# Submitted via: CDWizzard Release:4.24
#
DISCID=8409ab0b
DTITLE=Walker, Jerry Jeff - Bein' Free
DYEAR=1900
DGENRE=
TTITLE0=I'm Gonna Tell on You
TTITLE1=Stoney
TTITLE2=Where is the D.A.R. When You Really Need Them
TTITLE3=A Secret
TTITLE4=Nobody's
TTITLE5=Some Go Home
TTITLE6=But For the Time
TTITLE7=Vince Triple-O Martin
TTITLE8=Harmonica Talk
TTITLE9=Please Let Me Be
TTITLE10=More Often Than Not
EXTD=Reissue
EXTT0=
EXTT1=
EXTT2=
EXTT3=
EXTT4=
EXTT5=
EXTT6=
EXTT7=
EXTT8=
EXTT9=
EXTT10=
PLAYORDER=
